<svg xmlns="http://www.w3.org/2000/svg" width="192" height="192" style="shape-rendering:geometricPrecision;text-rendering:geometricPrecision;image-rendering:optimizeQuality;fill-rule:evenodd;clip-rule:evenodd"><path style="opacity:.004" fill="#87baaa" d="M83.5 16.5c2.803-1.138 5.803-1.305 9-.5a40.936 40.936 0 0 1-9 .5z"/><path style="opacity:.903" fill="#faf7f2" d="M147.5 35.5c.79.901 1.79 1.568 3 2 .79.901 1.79 1.568 3 2 6.323 4.48 12.157 10.146 17.5 17 1.368 1.493 1.535 2.993.5 4.5.566.995 1.233 1.828 2 2.5v2c1.933 9.21 2.433 18.544 1.5 28-3.379 11.047-10.546 18.547-21.5 22.5a80.563 80.563 0 0 1-15 3c-11.01 16.335-26.344 23.168-46 20.5-5.109 13.609-14.442 23.109-28 28.5a145.688 145.688 0 0 1-16 4.5h-3c0-.667-.333-1-1-1a25.615 25.615 0 0 1 6-6 301.462 301.462 0 0 0 3-4c.667 0 1-.333 1-1 2.124-1.559 3.791-3.559 5-6l-2-1c-8.955 2.146-17.955 2.479-27 1-1.535-.854-2.868-.854-4 0a17.339 17.339 0 0 1-7-3.5c-.076-2.017-1.076-3.85-3-5.5-.432-1.21-1.099-2.21-2-3 .172-.992-.162-1.658-1-2a87.265 87.265 0 0 0-2-9c.896-2.301 1.063-4.634.5-7l-1 4a12.801 12.801 0 0 0-3-6l-1 2a8.908 8.908 0 0 1-3-4c-.914 1.154-1.747.987-2.5-.5 1.333-1.84 1.166-2.34-.5-1.5-.278-.916-.778-1.582-1.5-2v-28c1.333-.333 1.333-.667 0-1v-2c2.006 1.178 2.34.678 1-1.5A1000.603 1000.603 0 0 1 12 64.5a45.24 45.24 0 0 1 7.5-8.5l-1-1c4.812-5.097 9.645-9.597 14.5-13.5l1 1a63.418 63.418 0 0 0 6.5-5c1.653-.16 2.986-.826 4-2 1.903-.296 3.57-.962 5-2a64.416 64.416 0 0 0 13.5-3c1.067 1.783 2.567 2.283 4.5 1.5.55-5.953 3.716-10.453 9.5-13.5.414.457.914.79 1.5 1 6-2.667 12-2.667 18 0a3.646 3.646 0 0 0 1.5-1 28.98 28.98 0 0 0 9.5 6c3.394-1.653 6.561-1.32 9.5 1l3-1 2 2a11.47 11.47 0 0 0 2.5-1c1.196.346 1.196.846 0 1.5a193.304 193.304 0 0 1 18 6.5 3.646 3.646 0 0 0 1.5-1 30.681 30.681 0 0 1 3.5 3z"/><path style="opacity:1" fill="#f18e1f" d="M81.5 23.5c5.762-.35 11.428.15 17 1.5 5.257 3.48 5.257 7.146 0 11-6.967 3.334-14.3 4.334-22 3-4.538-1.664-6.038-4.83-4.5-9.5 2.855-2.727 6.022-4.727 9.5-6zM145.5 66.5c.934-1.068 1.268-2.401 1-4-1.291-.237-2.291.096-3 1-1.89.203-3.39-.463-4.5-2-3.747-4.488-3.247-8.322 1.5-11.5 16.407-8.559 22.574-4.059 18.5 13.5a61.958 61.958 0 0 1-12.5 17 64.22 64.22 0 0 1-14 6c-17.057 2.262-25.724-5.072-26-22 .001-8.017.334-16.017 1-24 .874-10.016 6.207-13.516 16-10.5a176.185 176.185 0 0 1 21 8c2.691 2.812 2.024 4.645-2 5.5-10.754-6.092-16.421-2.925-17 9.5.109 8.002 3.109 14.668 9 20 5.473 1.048 9.139-1.119 11-6.5z"/><path style="opacity:.004" fill="#87baaa" d="M49.5 33.5c-.667-1.333-.667-1.333 0 0zM44.5 35.5c-.667-1.333-.667-1.333 0 0zM147.5 34.5c1.333.667 1.333.667 0 0zM40.5 37.5c-.667-1.333-.667-1.333 0 0zM150.5 36.5c1.333.667 1.333.667 0 0zM153.5 38.5c1.333.667 1.333.667 0 0z"/><path style="opacity:1" fill="#f7ab58" d="M97.5 42.5a96.938 96.938 0 0 0-16 1c2.856-1.506 6.023-2.172 9.5-2 2.36.004 4.527.337 6.5 1z"/><path style="opacity:1" fill="#f18d1d" d="M71.5 53.5a56.901 56.901 0 0 1 2 17 249.088 249.088 0 0 1-5 17c17.564-.102 25.23 8.564 23 26-2.742 17.317-12.41 28.817-29 34.5-10.162 3.5-20.496 4.167-31 2-7.335-2.67-11.835-7.837-13.5-15.5a114.67 114.67 0 0 0-1.5-15c-8.92-2.425-12.92-8.259-12-17.5 3.263-24.853 15.596-43.853 37-57 8.442-4.487 16.775-4.487 25 0a36.422 36.422 0 0 1 5 8.5z"/><path style="opacity:1" fill="#f18d1c" d="M97.5 42.5c3.232.272 5.232 1.938 6 5a109.174 109.174 0 0 1-1.5 23c-1.896 9.197-7.396 12.697-16.5 10.5-4.708-4.914-7.708-10.748-9-17.5a89.374 89.374 0 0 1-1-15c1.41-2.414 3.41-4.08 6-5a96.938 96.938 0 0 1 16-1z"/><path style="opacity:1" fill="#f7b66f" d="M107.5 40.5a288.973 288.973 0 0 0-1 24c-.983-3.798-1.317-7.798-1-12 .039-4.233.705-8.233 2-12z"/><path style="opacity:1" fill="#fddec3" d="M75.5 48.5a89.374 89.374 0 0 0 1 15c-.722-.417-1.222-1.084-1.5-2-.18 3.195-.68 6.195-1.5 9a56.901 56.901 0 0 0-2-17c.65.304 1.317.637 2 1a168.86 168.86 0 0 1 2-6z"/><path style="opacity:.004" fill="#87baaa" d="M173.5 63.5a2.429 2.429 0 0 1 .5-2c.692.937.525 1.603-.5 2z"/><path style="opacity:1" fill="#fefaf6" d="M44.5 63.5c8.142-.02 11.308 3.98 9.5 12-3.167 7.167-8.333 12.333-15.5 15.5-9.73.904-12.564-3.263-8.5-12.5 3.021-6.853 7.855-11.853 14.5-15z"/><path style="opacity:1" fill="#fef3ea" d="m103.5 47.5 2 5c-.317 4.202.017 8.202 1 12 .276 16.928 8.943 24.262 26 22 .667 0 1 .333 1 1-4.01 1.669-4.677 4.002-2 7l6 2c-2.712 4.078-2.379 8.078 1 12l-2 7c-.882-11.431-5.715-20.765-14.5-28l-2 2a169.166 169.166 0 0 0 0 26c.272 2.882 1.106 5.549 2.5 8-.838.342-1.172 1.008-1 2a3188.238 3188.238 0 0 0-12-17c10.511-9.932 9.178-17.765-4-23.5a27.848 27.848 0 0 0-13-1c-3.682 2.346-3.849 4.846-.5 7.5a122.548 122.548 0 0 1 2.5 32 196.817 196.817 0 0 1-1.5-20c-.179 3.525-.679 6.859-1.5 10 2.23-17.436-5.436-26.102-23-26a249.088 249.088 0 0 0 5-17c.82-2.805 1.32-5.805 1.5-9 .278.916.778 1.583 1.5 2 1.292 6.752 4.292 12.586 9 17.5 9.104 2.197 14.604-1.303 16.5-10.5a109.174 109.174 0 0 0 1.5-23z"/><path style="opacity:1" fill="#f9c693" d="M143.5 63.5c.709-.904 1.709-1.237 3-1 .268 1.599-.066 2.932-1 4 .215-1.679-.452-2.679-2-3z"/><path style="opacity:1" fill="#f18f22" d="M151.5 106.5c-3.396-7.34-5.229-15.007-5.5-23 .717-.544 1.217-1.21 1.5-2 2.238-1.037 4.571-1.203 7-.5a95.067 95.067 0 0 1 8 8.5l1-1.5a612.87 612.87 0 0 0-5-16.5c.716-4.116 2.882-7.116 6.5-9 1.261.26 2.261.926 3 2 4.62 11.657 4.62 23.324 0 35-1.388 1.054-2.888 1.22-4.5.5l-5.5-5.5c.534 3.767 1.7 7.434 3.5 11-1.446 2.335-3.613 3.668-6.5 4-1.642-.478-2.809-1.478-3.5-3z"/><path style="opacity:.008" fill="#5bae83" d="M180.5 75.5h-1c.333-4 .667-4 1 0z"/><path style="opacity:.008" fill="#2ba369" d="M180.5 75.5c1.025.397 1.192 1.063.5 2a2.429 2.429 0 0 1-.5-2z"/><path style="opacity:.872" fill="#1a965e" d="M173.5 65.5a38.237 38.237 0 0 1 6 10c.095 2.286.762 4.286 2 6 1.48 8.828.813 17.495-2 26-.838.342-1.172 1.008-1 2-.838.342-1.172 1.008-1 2-.667 0-1 .333-1 1-.838.342-1.172 1.008-1 2-.667 0-1 .333-1 1-1.333.333-1.333.667 0 1a6.547 6.547 0 0 1-3 3c-.333-1.333-.667-1.333-1 0-1.333.333-1.333.667 0 1-4.829 4.59-10.496 6.59-17 6a358.65 358.65 0 0 1-10 1.5c9.333.667 9.333 1.333 0 2L130 143.5l-1-1c-3.488 3.113-7.655 4.779-12.5 5-3.51-1.229-7.01-1.229-10.5 0-1.658-.175-2.991-.842-4-2-3.243 1.784-5.576 4.45-7 8-4.028 2.863-7.528 6.196-10.5 10-.333-1.333-.667-1.333-1 0-1.333.333-1.333.667 0 1-3.074 2.689-7.074 4.855-12 6.5a28.78 28.78 0 0 1-11 2.5c-3.798-.983-7.798-1.317-12-1a145.688 145.688 0 0 0 16-4.5c13.558-5.391 22.891-14.891 28-28.5 19.656 2.668 34.99-4.165 46-20.5a80.563 80.563 0 0 0 15-3c10.954-3.953 18.121-11.453 21.5-22.5.933-9.456.433-18.79-1.5-28z"/><path style="opacity:.008" fill="#21a263" d="M181.5 81.5a4.934 4.934 0 0 1 .5-3c.74 1.25.573 2.25-.5 3z"/><path style="opacity:1" fill="#fdead9" d="M146.5 80.5c0 .667.333 1 1 1-.283.79-.783 1.456-1.5 2 .271 7.993 2.104 15.66 5.5 23l-2-1c-1.391-2.46-2.558-5.126-3.5-8-1.789-1.729-3.956-2.396-6.5-2-.667 0-1-.333-1-1 3.157-1.327 4.324-3.66 3.5-7-2.832-1.286-5.665-1.286-8.5 0 0-.667-.333-1-1-1a64.22 64.22 0 0 0 14-6z"/><path style="opacity:.008" fill="#1da161" d="M182.5 82.5c1.073.75 1.24 1.75.5 3a4.934 4.934 0 0 1-.5-3z"/><path style="opacity:1" fill="#f18f21" d="M121.5 125.5c.17 1.322-.163 2.489-1 3.5-2.737 2.136-5.737 3.136-9 3a112.33 112.33 0 0 1-7-17.5l-1 1.5c1.892 5.718 2.725 11.551 2.5 17.5-9.455 3.385-13.289.052-11.5-10a122.548 122.548 0 0 0-2.5-32c-3.349-2.654-3.182-5.154.5-7.5a27.848 27.848 0 0 1 13 1c13.178 5.735 14.511 13.568 4 23.5a3188.238 3188.238 0 0 1 12 17z"/><path style="opacity:1" fill="#f18e21" d="M138.5 94.5h-7c-2.677-2.998-2.01-5.331 2-7 2.835-1.286 5.668-1.286 8.5 0 .824 3.34-.343 5.673-3.5 7z"/><path style="opacity:1" fill="#f18f23" d="M136.5 115.5c-.212 1.884-1.212 3.217-3 4-2.123-2.245-3.123-4.912-3-8h-3a72.367 72.367 0 0 1-.5 12c-1.616 1.301-3.116 1.301-4.5 0-1.394-2.451-2.228-5.118-2.5-8a169.166 169.166 0 0 1 0-26l2-2c8.785 7.235 13.618 16.569 14.5 28z"/><path style="opacity:1" fill="#fef4ec" d="M98.5 93.5c2.82-.252 5.486.248 8 1.5 1.054 1.388 1.22 2.888.5 4.5-5.959 2.548-8.793.548-8.5-6z"/><path style="opacity:1" fill="#facfa9" d="M131.5 94.5h7c0 .667.333 1 1 1-.342.838-1.008 1.172-2 1l-6-2z"/><path style="opacity:1" fill="#f18f22" d="M139.5 95.5c2.544-.396 4.711.271 6.5 2 .942 2.874 2.109 5.54 3.5 8 1.217 5.948-1.117 8.448-7 7.5a25.14 25.14 0 0 1-4-4.5c-3.379-3.922-3.712-7.922-1-12 .992.172 1.658-.162 2-1z"/><path style="opacity:1" fill="#feebdb" d="M123.5 98.5c4.122 1.577 5.622 4.577 4.5 9-1 1.333-2 1.333-3 0a30.465 30.465 0 0 1-1.5-9z"/><path style="opacity:.004" fill="#40a670" d="M182.5 96.5c1.098 1.1 1.265 2.434.5 4a8.43 8.43 0 0 1-.5-4z"/><path style="opacity:1" fill="#fefaf7" d="M63.5 101.5c10.569-.511 14.069 4.155 10.5 14-6.49 9.994-15.656 14.161-27.5 12.5-3.402-3.719-3.902-7.886-1.5-12.5 4.956-6.48 11.123-11.147 18.5-14z"/><path style="opacity:.004" fill="#25a368" d="M181.5 102.5c1.025.397 1.192 1.063.5 2a2.428 2.428 0 0 1-.5-2z"/><path style="opacity:.004" fill="#24a368" d="M180.5 107.5a2.428 2.428 0 0 1 .5-2c.692.937.525 1.603-.5 2z"/><path style="opacity:.004" fill="#28a46b" d="M179.5 107.5h1c.172.992-.162 1.658-1 2v-2z"/><path style="opacity:.004" fill="#119e5a" d="M178.5 109.5h1c.172.992-.162 1.658-1 2v-2z"/><path style="opacity:.004" fill="#87baaa" d="M177.5 111.5h1c-.185.67-.519.67-1 0z"/><path style="opacity:.004" fill="#0d9e58" d="M176.5 112.5h1c.172.992-.162 1.658-1 2v-2z"/><path style="opacity:.004" fill="#87baaa" d="M175.5 114.5h1c-.185.67-.519.67-1 0zM174.5 115.5h1c-.185.67-.519.67-1 0z"/><path style="opacity:.004" fill="#88baaa" d="M170.5 119.5h1c-.185.67-.519.67-1 0z"/><path style="opacity:.012" fill="#42a772" d="M151.5 128.5c1.101-1.098 2.434-1.265 4-.5a8.43 8.43 0 0 1-4 .5z"/><path style="opacity:.004" fill="#87baaa" d="M11.5 138.5c-1.098-1.101-1.265-2.434-.5-4a8.435 8.435 0 0 1 .5 4z"/><path style="opacity:.004" fill="#83b7a7" d="m11.5 138.5 2 2c-.172.992.162 1.658 1 2 .107 1.879-.393 2.212-1.5 1-1.009-1.525-1.509-3.192-1.5-5z"/><path style="opacity:.004" fill="#85b8a8" d="M16.5 145.5a2.427 2.427 0 0 1-.5 2c-.692-.937-.525-1.603.5-2z"/><path style="opacity:.004" fill="#87baaa" d="M107.5 150.5c.397-1.025 1.063-1.192 2-.5a2.428 2.428 0 0 1-2 .5z"/><path style="opacity:.004" fill="#2da56d" d="M110.5 150.5c.397-1.025 1.063-1.192 2-.5a2.428 2.428 0 0 1-2 .5z"/><path style="opacity:.004" fill="#0e9e58" d="M118.5 150.5c3.476-1.143 7.142-1.31 11-.5a60.931 60.931 0 0 1-11 .5z"/><path style="opacity:.004" fill="#0c9e57" d="M170.5 150.5c1.101-1.098 2.434-1.265 4-.5a8.43 8.43 0 0 1-4 .5z"/><path style="opacity:.004" fill="#74b59b" d="M182.5 150.5c1.101-1.098 2.434-1.265 4-.5a8.43 8.43 0 0 1-4 .5z"/><path style="opacity:.721" fill="#15965e" d="M148.5 166.5c-.16 1.653-.826 2.986-2 4-.333-1.333-.667-1.333-1 0-1.333.333-1.333.667 0 1-1.938 1.663-4.272 2.329-7 2v-1c0-.667-.333-1-1-1l-2-1c-.432-1.21-1.099-2.21-2-3v-16c2.579-.417 4.746.25 6.5 2 2.135-1.778 4.635-2.445 7.5-2-.321 5.195.013 10.195 1 15z"/><path style="opacity:.568" fill="#10975c" d="M166.5 157.5v1c-1.333.333-1.333.667 0 1v5c.561 1.566-.106 2.899-2 4-.667 0-1 .333-1 1-1.333.333-1.333.667 0 1-.558 1.29-1.558 2.123-3 2.5-2.929.777-5.763.61-8.5-.5-.5-6.992-.666-13.992-.5-21 2.357.163 4.69-.003 7-.5l-6-1a32.462 32.462 0 0 1 8-.5c1.541 2.893 3.541 5.56 6 8z"/><path style="opacity:.532" fill="#11955d" d="M169.5 151.5c1.967-.239 3.801.094 5.5 1 .667 6 .667 12 0 18-1.487.753-1.654 1.586-.5 2.5-1.933.783-3.433.283-4.5-1.5-.5-6.658-.666-13.325-.5-20z"/><path style="opacity:.594" fill="#13975d" d="M127.5 171.5c-.333-18.667-.667-18.667-1 0-1.333.333-1.333.667 0 1-2.317 1.442-4.484 1.108-6.5-1-.2-4.253-.7-8.42-1.5-12.5l1-1a29.517 29.517 0 0 1-4.5-2.5c-2.933 2.504-2.933 4.837 0 7l1-1c.21 1.303.043 2.636-.5 4 .318 1.147.984 1.981 2 2.5-2 1.333-3.667 3-5 5a12.494 12.494 0 0 1-7 0c1.154-.914.987-1.747-.5-2.5l-1 1c-.81-1.806-1.976-3.306-3.5-4.5a2187.73 2187.73 0 0 1 4-5 29.517 29.517 0 0 1-2.5-4.5c-.654 1.196-1.154 1.196-1.5 0a31.147 31.147 0 0 0 2-2c2.249-3.752 5.582-4.919 10-3.5 1.167.5 2 1.333 2.5 2.5.5-1.167 1.333-2 2.5-2.5a84.902 84.902 0 0 1 13-.5 733.655 733.655 0 0 0-3 20zm-17-13c-1.837-.139-2.17-.806-1-2 .798.457 1.131 1.124 1 2zm-2 6c.789.283 1.456.783 2 1.5-1.316.528-1.983.028-2-1.5z"/><path style="opacity:.004" fill="#8bbaac" d="M166.5 164.5v-7c.79-1.109 1.29-2.442 1.5-4a72.464 72.464 0 0 1 0 17c-.191-2.208-.691-4.208-1.5-6z"/><path style="opacity:.004" fill="#87baaa" d="M26.5 154.5c1.333.667 1.333.667 0 0z"/><path style="opacity:.004" fill="#2ca46b" d="M102.5 155.5c-1.025-.397-1.192-1.063-.5-2 .464.594.631 1.261.5 2z"/><path style="opacity:.004" fill="#7fb7a3" d="M148.5 166.5c-.437-4.861.063-9.528 1.5-14a74.14 74.14 0 0 1-1.5 14z"/><path style="opacity:.004" fill="#87baaa" d="M28.5 155.5c1.333.667 1.333.667 0 0z"/><path style="opacity:.667" fill="#13965d" d="M191.5 153.5v18c-1.45-1.158-2.45-.658-3 1.5-3.73.979-6.564-.187-8.5-3.5-1.379-4.536-1.879-9.203-1.5-14a30.233 30.233 0 0 1 3-3.5c2.547-.067 4.714-.901 6.5-2.5.66 1.824 1.827 3.157 3.5 4zm-6 5c2.364 1.772 2.364 3.772 0 6-2.522-2.147-2.522-4.147 0-6z"/><path style="opacity:.676" fill="#1e985f" d="M54.5 160.5c-.667 0-1 .333-1 1h-5c-1.446-1.113-3.113-1.28-5-.5 1.196.654 1.196 1.154 0 1.5a9.419 9.419 0 0 0-3-3l-1 2c-2.961-.683-3.295-1.516-1-2.5-3.184-.754-5.851-2.254-8-4.5 9.045 1.479 18.045 1.146 27-1l2 1c-1.209 2.441-2.876 4.441-5 6z"/><path style="opacity:.004" fill="#78b59d" d="M132.5 167.5c-1.15-4.816-1.316-9.816-.5-15 .499 4.989.666 9.989.5 15z"/><path style="opacity:.004" fill="#aac5c1" d="M48.5 161.5c-.397 1.025-1.063 1.192-2 .5a2.429 2.429 0 0 1 2-.5z"/><path style="opacity:.004" fill="#85b9a8" d="M178.5 155.5c-.826 4.816-1.326 9.816-1.5 15a72.464 72.464 0 0 1 0-17c.717.544 1.217 1.211 1.5 2z"/><path style="opacity:.004" fill="#52af86" d="M83.5 163.5h1c-.185.67-.519.67-1 0z"/><path style="opacity:.004" fill="#83b7a7" d="M50.5 165.5c-.667-1.333-.667-1.333 0 0z"/><path style="opacity:.004" fill="#8dbbae" d="M116.5 164.5c1.025.397 1.192 1.063.5 2a2.428 2.428 0 0 1-.5-2z"/><path style="opacity:.004" fill="#5aad86" d="M132.5 167.5h1c-.333 2.667-.667 2.667-1 0z"/><path style="opacity:.004" fill="#8fbcaf" d="M164.5 168.5c1.333.667 1.333.667 0 0z"/><path style="opacity:.004" fill="#129f5b" d="M149.5 169.5c1.333.667 1.333.667 0 0z"/><path style="opacity:.004" fill="#90bdb0" d="M163.5 169.5h1c-.185.67-.519.67-1 0z"/><path style="opacity:.004" fill="#87baaa" d="M145.5 170.5h1c-.185.67-.519.67-1 0zM44.5 171.5c-.667.667-.667.667 0 0zM126.5 171.5h1c-.185.67-.519.67-1 0z"/><path style="opacity:.004" fill="#82b7a7" d="m135.5 170.5 2 1c.667 0 1 .333 1 1v1c-1.696-.185-3.029-1.019-4-2.5.228-.399.562-.565 1-.5z"/><path style="opacity:.004" fill="#5faf89" d="M45.5 172.5h1c4.47.986 9.137 1.319 14 1-4.017.753-8.184 1.42-12.5 2-1.75-.248-2.582-1.248-2.5-3z"/></svg>