<svg xmlns="http://www.w3.org/2000/svg" width="40" height="40" style="shape-rendering:geometricPrecision;text-rendering:geometricPrecision;image-rendering:optimizeQuality;fill-rule:evenodd;clip-rule:evenodd"><path style="opacity:.016" fill="#f6fef8" d="M19.5 1.5c1.333.667 1.333.667 0 0zM21.5 3.5c.397-1.025 1.063-1.192 2-.5a2.427 2.427 0 0 1-2 .5zM27.5 3.5c1.333.667 1.333.667 0 0z"/><path style="opacity:.778" fill="#fdf1ea" d="M19.5 2.5a17.055 17.055 0 0 0 7 3c-1.599-.268-2.932.066-4 1l-2 3c-1.55-1.22-3.216-1.22-5 0h-2c-1.068-.934-2.401-1.268-4-1v-2c.438.065.772-.101 1-.5l-2-1c1.399-.595 2.732-.428 4 .5 1.987-1.827 4.32-2.827 7-3z"/><path style="opacity:1" fill="#f1862c" d="M16.5 4.5c4.499.435 4.832 1.435 1 3-2.303-.376-2.637-1.376-1-3z"/><path style="opacity:.643" fill="#fef2eb" d="M9.5 6.5v2c-1 .333-1.667 1-2 2-2.67 1.62-4.67 3.954-6 7 .172.992-.162 1.658-1 2h-1v-3c2.306-4.306 5.639-7.639 10-10z"/><path style="opacity:1" fill="#fee7da" d="M22.5 6.5c1.068-.934 2.401-1.268 4-1 3.413.874 6.413 2.54 9 5-.172.992.162 1.658 1 2v1l-2 6v-6c-.432-1.21-1.099-2.21-2-3-.75-1.073-1.75-1.24-3-.5-1.274.977-1.274 1.81 0 2.5 0 1.333-.667 2-2 2l-2-1c-.396-2.544.271-4.711 2-6.5-1.634-.494-3.3-.66-5-.5z"/><path style="opacity:1" fill="#f0820e" d="M22.5 6.5c1.7-.16 3.366.006 5 .5-1.729 1.789-2.396 3.956-2 6.5-.81-1.792-1.31-3.792-1.5-6-.736 3.092-.57 6.092.5 9-1.902-2.837-2.569-6.17-2-10z"/><path style="opacity:.016" fill="#f6fef8" d="M35.5 9.5c1.333.667 1.333.667 0 0z"/><path style="opacity:1" fill="#f18b26" d="M20.5 9.5a18.436 18.436 0 0 1-.5 6c-.383.556-.883.89-1.5 1-2.334-1.676-3.334-4.009-3-7 1.784-1.22 3.45-1.22 5 0z"/><path style="opacity:1" fill="#f1871d" d="M9.5 8.5c1.599-.268 2.932.066 4 1 .841 1.88 1.175 3.88 1 6-.722-.418-1.222-1.084-1.5-2-.278.916-.778 1.582-1.5 2 0-2-1-3-3-3-.51-.841.157-1.341 2-1.5a4.932 4.932 0 0 0-3-.5c.333-1 1-1.667 2-2z"/><path style="opacity:1" fill="#f2841f" d="M32.5 10.5c-.004 3.75-1.004 4.417-3 2-1.274-.69-1.274-1.523 0-2.5 1.25-.74 2.25-.573 3 .5z"/><path style="opacity:.016" fill="#f6fef8" d="M36.5 11.5c1.333.667 1.333.667 0 0zM-.5 12.5c1.333.667 1.333.667 0 0z"/><path style="opacity:1" fill="#fdece4" d="M8.5 12.5c2 0 3 1 3 3l-3 3c-1.291.237-2.291-.096-3-1 .25-2.174 1.25-3.84 3-5z"/><path style="opacity:.016" fill="#f6fef8" d="M37.5 13.5c1.333.667 1.333.667 0 0z"/><path style="opacity:1" fill="#fcdac8" d="M13.5 9.5h2c-.334 2.991.666 5.324 3 7v1a51.209 51.209 0 0 1 4 2.5 4.932 4.932 0 0 1-3 .5v6h-2c2.193-4.663.86-7.33-4-8a5.728 5.728 0 0 1 1-3c.175-2.12-.159-4.12-1-6z"/><path style="opacity:1" fill="#fbd4bf" d="M22.5 6.5c-.569 3.83.098 7.163 2 10 1.64.647 2.974 1.647 4 3v5h-2c.304-.65.637-1.317 1-2-.346-1.196-.846-1.196-1.5 0 .617-1.595.284-2.928-1-4l-1 6c-.383-.556-.883-.89-1.5-1 2.114-4.333.781-6.333-4-6v-1c.617-.11 1.117-.444 1.5-1 .495-1.973.662-3.973.5-6l2-3z"/><path style="opacity:1" fill="#f18c29" d="m25.5 13.5 2 1c.418.722 1.084 1.222 2 1.5-.837 1.011-1.17 2.178-1 3.5-1.026-1.353-2.36-2.353-4-3-1.07-2.908-1.236-5.908-.5-9 .19 2.208.69 4.208 1.5 6z"/><path style="opacity:1" fill="#f18c2b" d="M7.5 10.5a4.932 4.932 0 0 1 3 .5c-1.843.159-2.51.659-2 1.5-1.75 1.16-2.75 2.826-3 5a30.958 30.958 0 0 0-2 2 30.958 30.958 0 0 0-2-2c1.33-3.046 3.33-5.38 6-7z"/><path style="opacity:1" fill="#f9c4a6" d="M32.5 10.5c.901.79 1.568 1.79 2 3a70.679 70.679 0 0 0-2 4 3.646 3.646 0 0 1-1.5-1c-.49 2.045-.323 4.045.5 6h-1c-.432-1.21-1.099-2.21-2-3-.17-1.322.163-2.489 1-3.5-.916-.278-1.582-.778-2-1.5 1.333 0 2-.667 2-2 1.996 2.417 2.996 1.75 3-2z"/><path style="opacity:1" fill="#f18d25" d="M14.5 15.5a5.728 5.728 0 0 0-1 3l-2 2c-.996-.086-1.83.248-2.5 1 .109-1.269-.058-2.269-.5-3l3-3c.722-.418 1.222-1.084 1.5-2 .278.916.778 1.582 1.5 2z"/><path style="opacity:1" fill="#f2883a" d="M34.5 13.5v6c-.31 1.238-.81 1.238-1.5 0-.232 1.238-.732 2.238-1.5 3-.823-1.955-.99-3.955-.5-6 .414.457.914.79 1.5 1a70.679 70.679 0 0 1 2-4z"/><path style="opacity:1" fill="#f18b21" d="M1.5 17.5c.651.59 1.318 1.257 2 2a30.958 30.958 0 0 1 2-2c.709.904 1.709 1.237 3 1 .442.731.609 1.731.5 3 .67-.752 1.504-1.086 2.5-1-1.885 1.553-2.885 3.553-3 6 2.579.106 4.912-.56 7-2-.87 1.774-2.203 3.107-4 4-4.33 1.049-6.497-.618-6.5-5-.383.556-.883.89-1.5 1-2.227-.9-3.227-2.567-3-5 .838-.342 1.172-1.008 1-2z"/><path style="opacity:1" fill="#f18c2b" d="M13.5 18.5c4.86.67 6.193 3.337 4 8a6.541 6.541 0 0 1-3 3c-.709-.904-1.709-1.237-3-1 1.797-.893 3.13-2.226 4-4 .333-3-1-4.333-4-4l2-2z"/><path style="opacity:1" fill="#f07e1e" d="M28.5 19.5c.901.79 1.568 1.79 2 3h-2v-3z"/><path style="opacity:1" fill="#fdefe7" d="M11.5 20.5c3-.333 4.333 1 4 4-2.088 1.44-4.421 2.106-7 2 .115-2.447 1.115-4.447 3-6z"/><path style="opacity:.508" fill="#f7eee6" d="M-.5 19.5h1c-.227 2.433.773 4.1 3 5-.322 2.222.345 4.056 2 5.5 2.31.497 4.643.663 7 .5.088 3.098-.412 3.432-1.5 1-1.011.837-2.178 1.17-3.5 1l-4-1c-.972-2.632-2.305-4.965-4-7v-5z"/><path style="opacity:.976" fill="#e4e3d7" d="M36.5 13.5v1c.672 5.995-1.995 9.329-8 10v-2h3c.768-.762 1.268-1.762 1.5-3 .69 1.238 1.19 1.238 1.5 0l2-6z"/><path style="opacity:1" fill="#1e9251" d="M36.5 14.5h1c1.582 7.2-1.085 11.534-8 13h-1v-3c6.005-.671 8.672-4.005 8-10z"/><path style="opacity:1" fill="#f5a36e" d="M26.5 24.5c-1.28 1.431-2.947 2.098-5 2-1.629-1.696-1.296-2.696 1-3 .617.11 1.117.444 1.5 1l1-6c1.284 1.072 1.617 2.405 1 4 .654-1.196 1.154-1.196 1.5 0-.363.683-.696 1.35-1 2z"/><path style="opacity:.987" fill="#d3ddd0" d="M26.5 24.5h2v1c-2.827 2.331-6.16 3.665-10 4a18.088 18.088 0 0 1-2 3.5c.228.399.562.565 1 .5l-2 2c-1.9-.067-3.734.267-5.5 1-.246-1.22-1.08-2.22-2.5-3v-1c1.322.17 2.489-.163 3.5-1 1.088 2.432 1.588 2.098 1.5-1l2-1a6.541 6.541 0 0 0 3-3h2c.667 1.333 1.333 1.333 2 0 2.053.098 3.72-.569 5-2z"/><path style="opacity:.996" fill="#f18727" d="M18.5 17.5c4.781-.333 6.114 1.667 4 6-2.296.304-2.629 1.304-1 3-.667 1.333-1.333 1.333-2 0v-6a4.932 4.932 0 0 0 3-.5 51.209 51.209 0 0 0-4-2.5z"/><path style="opacity:.027" fill="#066120" d="M29.5 27.5c1.333.667 1.333.667 0 0z"/><path style="opacity:1" fill="#f18922" d="M11.5 28.5c1.291-.237 2.291.096 3 1l-2 1a24.939 24.939 0 0 1-7-.5c-1.655-1.444-2.322-3.278-2-5.5.617-.11 1.117-.444 1.5-1 .003 4.382 2.17 6.049 6.5 5z"/><path style="opacity:.345" fill="#2b9755" d="M28.5 25.5v2a10.174 10.174 0 0 1-3 3h-4a12.066 12.066 0 0 0-4 3c-.438.065-.772-.101-1-.5a18.088 18.088 0 0 0 2-3.5c3.84-.335 7.173-1.669 10-4z"/><path style="opacity:.492" fill="#06975d" d="M39.5 30.5v5c-2.839-.469-5.505-.469-8 0v-4c2.448-.835 5.115-1.168 8-1z"/><path style="opacity:.016" fill="#f6fef8" d="M3.5 31.5v1c-.67-.481-.67-.815 0-1z"/><path style="opacity:.554" fill="#0a985e" d="M21.5 30.5h2c.333 1.333.667 1.333 1 0h1c2.12-.175 4.12.159 6 1v4h-4c-.096-3.81-.762-3.81-2 0-1.238-3.81-1.904-3.81-2 0h-3c-.134-1.791.2-3.458 1-5z"/><path style="opacity:.016" fill="#f6fef8" d="M3.5 32.5c1.333.667 1.333.667 0 0zM7.5 33.5c-.397 1.025-1.063 1.192-2 .5a2.428 2.428 0 0 1 2-.5z"/><path style="opacity:.027" fill="#066120" d="M15.5 35.5c1.333.667 1.333.667 0 0z"/><path style="opacity:.016" fill="#f6fef8" d="M12.5 36.5c1.333.667 1.333.667 0 0z"/></svg>