<svg xmlns="http://www.w3.org/2000/svg" width="144" height="144" style="shape-rendering:geometricPrecision;text-rendering:geometricPrecision;image-rendering:optimizeQuality;fill-rule:evenodd;clip-rule:evenodd"><path style="opacity:.791" fill="#fbf7f2" d="M130.5 48.5a95.223 95.223 0 0 1 .5 22c-5.062 11.968-14.229 18.135-27.5 18.5-7.548 11.968-18.381 16.802-32.5 14.5-7.223 14.36-18.723 23.026-34.5 26-1.057.706-.724 1.039 1 1v1c-2.135.353-3.468-.48-4-2.5a65.329 65.329 0 0 1 6-7.5c2.336-1.345 4.003-3.345 5-6-1.966-.872-3.966-.705-6 .5a112.97 112.97 0 0 1-15 .5c-6.446-1.451-11.113-5.117-14-11-.535-3.999-1.201-8-2-12-3.33-1.67-5.997-4.002-8-7v-21c6.41-17.255 17.744-30.422 34-39.5a94.139 94.139 0 0 1 17-3.5c3.875-7.938 10.208-11.104 19-9.5 3.307.653 5.973 2.32 8 5 16.623.044 31.289 5.544 44 16.5 3.846 4.168 6.846 8.835 9 14z"/><path style="opacity:1" fill="#f19023" d="M66.5 29.5h-8c-4.248-1.088-5.748-3.755-4.5-8 3.175-3.168 7.008-4.502 11.5-4 3.092.007 6.092.507 9 1.5 2.765 2.966 2.432 5.633-1 8-2.15 1.411-4.484 2.245-7 2.5zM111.5 58.5a71.99 71.99 0 0 1-10 5.5c1.634.493 3.301.66 5 .5.285 1.788-.048 3.455-1 5a19.374 19.374 0 0 1-8 1v-3a10.521 10.521 0 0 0 3-2.5 83.719 83.719 0 0 1-14-2c-3.302-2.317-5.469-5.483-6.5-9.5-.5-5.657-.666-11.324-.5-17-.17-4.986 1.163-9.486 4-13.5 8.818-.547 17.151 1.287 25 5.5 1.231 1.15 1.231 2.317 0 3.5-2.933.296-5.766-.204-8.5-1.5-2.151.143-3.818 1.143-5 3-1.733 7.666-.233 14.5 4.5 20.5 5.308 2.175 8.641.342 10-5.5a99.85 99.85 0 0 0-5.5-2c-2.825-4.86-1.658-8.36 3.5-10.5 9.763-3.89 13.93-.723 12.5 9.5a56.292 56.292 0 0 1-8.5 13z"/><path style="opacity:1" fill="#fad5aa" d="M58.5 29.5h8l5 2h-7l-6-2z"/><path style="opacity:1" fill="#f18f20" d="M54.5 43.5c1.08 3.243 1.247 6.576.5 10-1.173 4.03-2.34 8.03-3.5 12 7.792-1.013 13.292 1.987 16.5 9 .499 3.986.665 7.986.5 12-5.383 17.703-17.383 26.703-36 27-9.958.776-16.458-3.558-19.5-13a60.94 60.94 0 0 1-.5-11c-3.768-.637-6.601-2.637-8.5-6C2.99 62.688 11.156 46.522 28.5 35c8.447-6.354 16.28-5.854 23.5 1.5 1.411 2.15 2.245 4.484 2.5 7z"/><path style="opacity:1" fill="#f18f20" d="M64.5 31.5h7c3.692-.176 5.692 1.49 6 5a52.31 52.31 0 0 1-2.5 20c-6.691 7.328-12.025 6.328-16-3-2.119-5.465-2.952-11.132-2.5-17 1.585-3.139 4.252-4.806 8-5z"/><path style="opacity:1" fill="#f29127" d="M113.5 80.5c-1.66-5.316-3.327-10.649-5-16 1.185-3.099 3.518-4.432 7-4 2.17 1.338 3.836 3.172 5 5.5.983.59 1.65.257 2-1-2.957-5.343-3.457-10.843-1.5-16.5.837-1.507 2.004-2.007 3.5-1.5 1.817 1.8 2.984 3.966 3.5 6.5 1.125 7.439.292 14.606-2.5 21.5-3.148.06-5.481-1.44-7-4.5l-1 1c2.417 2.934 3.084 6.1 2 9.5-2.33 2.091-4.33 1.925-6-.5z"/><path style="opacity:1" fill="#fef9f4" d="M32.5 47.5c6.599-.445 9.099 2.555 7.5 9-3.133 7.498-8.633 11.332-16.5 11.5-1.978-2.497-2.478-5.33-1.5-8.5a36.178 36.178 0 0 1 4-7 50.764 50.764 0 0 0 6.5-5z"/><path style="opacity:1" fill="#fef1e5" d="M56.5 36.5c-.452 5.868.381 11.535 2.5 17 3.975 9.328 9.309 10.328 16 3a52.31 52.31 0 0 0 2.5-20h2c-.166 5.676 0 11.343.5 17 1.031 4.017 3.198 7.183 6.5 9.5a83.719 83.719 0 0 0 14 2 10.521 10.521 0 0 1-3 2.5l-2 2c-1.163-2.737-2.997-3.737-5.5-3a132.493 132.493 0 0 0 0 23 16.569 16.569 0 0 0 2.5 4c-.522 1.72-1.522 3.052-3 4 .973-1.568 1.14-3.235.5-5a123.833 123.833 0 0 0-7.5-11c7.9-8.658 6.232-14.824-5-18.5-3.062-.742-6.062-.575-9 .5-1.3 1.807-1.132 3.473.5 5a91.652 91.652 0 0 1 1.5 17l-2 1a72.444 72.444 0 0 0-.5-12c-3.208-7.013-8.708-10.013-16.5-9 1.16-3.97 2.327-7.97 3.5-12 .747-3.424.58-6.757-.5-10l2-7z"/><path style="opacity:.004" fill="#39aa74" d="M135.5 56.5c1.333.667 1.333.667 0 0z"/><path style="opacity:1" fill="#fde2c9" d="m111.5 58.5 4 2c-3.482-.432-5.815.901-7 4 1.673 5.351 3.34 10.684 5 16h-1c-1.391-2.46-2.558-5.126-3.5-8-7.373-1.442-9.207 1.225-5.5 8-.838.342-1.172 1.008-1 2a57.938 57.938 0 0 0-7-13l2-2v3a19.374 19.374 0 0 0 8-1c.952-1.545 1.285-3.212 1-5a12.935 12.935 0 0 1-5-.5 71.99 71.99 0 0 0 10-5.5z"/><path style="opacity:.834" fill="#18975e" d="M130.5 48.5c.809.969 1.809 1.802 3 2.5l-1 1a86.983 86.983 0 0 1 3 5.5c3.64 14.163.473 25.83-9.5 35l-1-1a14.439 14.439 0 0 1-5.5 2.5c1.196.654 1.196 1.154 0 1.5l-2-1a70.323 70.323 0 0 0-11 3.5c-4.782 6.935-10.949 11.102-18.5 12.5-4.481-.964-8.814-.964-13 0l-1-2c-2.89 6.072-7.056 11.239-12.5 15.5a133.391 133.391 0 0 1-15 6.5c-1.982-1.47-3.648-1.136-5 1a4.451 4.451 0 0 1-1.5-2c-.708.881-1.542 1.547-2.5 2v-1c0-.667-.333-1-1-1 15.777-2.974 27.277-11.64 34.5-26 14.119 2.302 24.952-2.532 32.5-14.5 13.271-.365 22.438-6.532 27.5-18.5a95.223 95.223 0 0 0-.5-22z"/><path style="opacity:1" fill="#f29127" d="M89.5 97.5a15.416 15.416 0 0 0-4.5 2c-1.77-.847-2.937-2.18-3.5-4a48.986 48.986 0 0 0-3-9l-1 1a38.501 38.501 0 0 1 2 13 16.874 16.874 0 0 1-8-1 53.762 53.762 0 0 1-1-14 91.652 91.652 0 0 0-1.5-17c-1.632-1.527-1.8-3.193-.5-5 2.938-1.075 5.938-1.242 9-.5 11.232 3.676 12.9 9.842 5 18.5a123.833 123.833 0 0 1 7.5 11c.64 1.765.473 3.432-.5 5z"/><path style="opacity:1" fill="#feecdb" d="M74.5 69.5c3.86-.201 5.694 1.465 5.5 5-4.92 1.577-6.754-.09-5.5-5z"/><path style="opacity:1" fill="#f29229" d="M112.5 80.5c.148 2.852-1.186 4.519-4 5a17.847 17.847 0 0 1-5-5c-3.707-6.775-1.873-9.442 5.5-8 .942 2.874 2.109 5.54 3.5 8z"/><path style="opacity:1" fill="#fef9f4" d="M45.5 76.5c10.188-.995 13.021 3.005 8.5 12-5.363 5.776-11.863 8.276-19.5 7.5-1.978-2.497-2.478-5.33-1.5-8.5 3.127-4.96 7.294-8.627 12.5-11z"/><path style="opacity:1" fill="#f29229" d="M95.5 69.5a57.938 57.938 0 0 1 7 13c.901 3.74-.432 5.74-4 6 .384-2.165-.283-3.832-2-5a42.707 42.707 0 0 0-1.5 9c-.67.752-1.504 1.086-2.5 1a16.569 16.569 0 0 1-2.5-4 132.493 132.493 0 0 1 0-23c2.503-.737 4.337.263 5.5 3z"/><path style="opacity:1" fill="#fde9d6" d="M92.5 73.5c2.583 1.485 3.916 3.818 4 7h-3a51.639 51.639 0 0 1-1-7z"/><path style="opacity:1" fill="#fbdbbc" d="m81.5 95.5-2 5a38.501 38.501 0 0 0-2-13l1-1a48.986 48.986 0 0 1 3 9z"/><path style="opacity:.004" fill="#7eb5a4" d="M9.5 105.5c-.667.667-.667.667 0 0z"/><path style="opacity:.618" fill="#0d955b" d="M88.5 112.5a32.462 32.462 0 0 1 8 .5c2.58 1.841 2.58 3.674 0 5.5a62.687 62.687 0 0 0-1.5 11c-1.938 1.36-3.604 1.027-5-1-.05-4.564-.883-8.897-2.5-13a10.022 10.022 0 0 1 1-3z"/><path style="opacity:.528" fill="#069359" d="M114.5 112.5c8.713.219 11.88 4.552 9.5 13a20.812 20.812 0 0 1-7 5c-1.711.061-3.044-.606-4-2a99.101 99.101 0 0 0-1.5-13.5c1.442-.377 2.442-1.21 3-2.5z"/><path style="opacity:.329" fill="#05945b" d="M128.5 112.5c.65.304 1.317.637 2 1a43.233 43.233 0 0 1 .5 16c-1.587 1.227-2.921.894-4-1-1.033-5.627-.533-10.96 1.5-16z"/><path style="opacity:.564" fill="#0b945b" d="M143.5 114.5v13a14.698 14.698 0 0 0-3.5 3c-.741-1.141-1.575-1.141-2.5 0a19.887 19.887 0 0 1-3.5-4 42.36 42.36 0 0 0-1.5-8.5c2.003-4.96 5.67-6.126 11-3.5z"/><path style="opacity:.523" fill="#04935a" d="M99.5 125.5a72.442 72.442 0 0 1 .5-12c1.333-1.333 2.667-1.333 4 0 .667 14.667 1.333 14.667 2 0 1.049-1.017 2.216-1.184 3.5-.5 1.132 4.413 1.299 8.913.5 13.5-3.805 5.054-7.305 4.72-10.5-1z"/><path style="opacity:.564" fill="#269962" d="M39.5 121.5a358.743 358.743 0 0 0-10-1.5c-2.41-.6-4.41-1.766-6-3.5a112.97 112.97 0 0 0 15-.5c2.034-1.205 4.034-1.372 6-.5-.997 2.655-2.664 4.655-5 6z"/><path style="opacity:.524" fill="#09955b" d="M80.5 112.5c4.306-.197 6.306 1.803 6 6-3.743-.041-3.91.626-.5 2 1.828 3.525.994 6.359-2.5 8.5l1 1c-4.152.533-7.152-1.133-9-5a6.544 6.544 0 0 1 3-3c-2.977-3.947-2.31-7.114 2-9.5z"/><path style="opacity:.004" fill="#2ea66e" d="M99.5 125.5c-.667.667-.667.667 0 0z"/></svg>