<?xml version="1.0" encoding="UTF-8"?>
<!DOCTYPE svg PUBLIC "-//W3C//DTD SVG 1.1//EN" "http://www.w3.org/Graphics/SVG/1.1/DTD/svg11.dtd">
<svg xmlns="http://www.w3.org/2000/svg" version="1.1" width="96px" height="96px" style="shape-rendering:geometricPrecision; text-rendering:geometricPrecision; image-rendering:optimizeQuality; fill-rule:evenodd; clip-rule:evenodd" xmlns:xlink="http://www.w3.org/1999/xlink">
<g><path style="opacity:0.698" fill="#fcf9f4" d="M 51.5,11.5 C 50.8333,11.5 50.5,11.8333 50.5,12.5C 46.554,11.4731 42.554,11.3064 38.5,12C 34.0742,15.967 34.7409,18.467 40.5,19.5C 40.5,20.1667 40.5,20.8333 40.5,21.5C 38.9731,21.427 37.9731,22.0937 37.5,23.5C 36.8333,24.5 36.1667,25.5 35.5,26.5C 34.0801,22.2808 31.0801,20.2808 26.5,20.5C 20.9199,21.7089 16.0866,24.3755 12,28.5C 6.61834,34.9302 3.11834,42.2635 1.5,50.5C 1.28658,55.6076 3.61992,58.6076 8.5,59.5C 8.00752,72.8312 14.3408,77.9979 27.5,75C 34.0063,73.3408 39.173,69.8408 43,64.5C 44.1356,61.9036 44.969,59.237 45.5,56.5C 45.8333,56.5 46.1667,56.5 46.5,56.5C 46.2529,59.9387 46.5863,63.272 47.5,66.5C 47.5,67.1667 47.5,67.8333 47.5,68.5C 46.1667,68.5 45.5,69.1667 45.5,70.5C 44.1566,74.3508 41.8233,77.5175 38.5,80C 33.9777,82.6648 29.3111,84.8315 24.5,86.5C 23.6236,86.6309 22.9569,86.2975 22.5,85.5C 23.9524,84.0603 24.9524,82.3936 25.5,80.5C 29.4089,79.5699 29.9089,78.2366 27,76.5C 23.2079,77.3102 19.3745,77.6436 15.5,77.5C 8.1161,75.4467 4.6161,70.4467 5,62.5C 3.0083,61.3353 1.17496,60.002 -0.5,58.5C -0.5,53.1667 -0.5,47.8333 -0.5,42.5C 4.50314,30.6597 12.8365,21.8263 24.5,16C 27.5535,15.8214 30.5535,15.3214 33.5,14.5C 35.3978,10.2102 38.7312,7.87682 43.5,7.5C 46.7145,7.95003 49.3811,9.28336 51.5,11.5 Z"/></g>
<g><path style="opacity:1" fill="#f19024" d="M 50.5,12.5 C 50.822,14.7224 50.1554,16.5557 48.5,18C 45.9373,19.0793 43.2706,19.5793 40.5,19.5C 34.7409,18.467 34.0742,15.967 38.5,12C 42.554,11.3064 46.554,11.4731 50.5,12.5 Z"/></g>
<g><path style="opacity:0.616" fill="#fbf3e9" d="M 51.5,11.5 C 63.1624,11.8839 73.3291,15.8839 82,23.5C 84.6195,26.406 86.4528,29.7393 87.5,33.5C 90.4305,48.509 84.4305,57.009 69.5,59C 66.6033,64.1166 62.2699,67.2833 56.5,68.5C 53.5,68.5 50.5,68.5 47.5,68.5C 47.5,67.8333 47.5,67.1667 47.5,66.5C 49.1667,66.5 50.8333,66.5 52.5,66.5C 53.1667,65.5 53.8333,64.5 54.5,63.5C 56.7301,66.3154 58.3968,65.9821 59.5,62.5C 58.4688,59.3 56.8021,56.4667 54.5,54C 55.7101,52.9609 56.7101,51.7942 57.5,50.5C 58.1667,52.1667 58.8333,53.8333 59.5,55.5C 58.8872,58.9694 60.2206,60.9694 63.5,61.5C 63.3251,55.3034 64.3251,54.6367 66.5,59.5C 67.086,59.2907 67.586,58.9574 68,58.5C 68.1805,56.5116 68.0138,54.5116 67.5,52.5C 68.8366,53.3149 69.8366,54.4815 70.5,56C 72.0657,56.765 73.3991,56.5983 74.5,55.5C 75.1667,55.1667 75.8333,54.8333 76.5,54.5C 78.632,54.4456 79.9653,53.4456 80.5,51.5C 82.2191,50.9779 83.5525,49.9779 84.5,48.5C 85.9939,43.1012 85.8272,37.7679 84,32.5C 82.2859,31.0745 80.9525,31.4078 80,33.5C 79.9218,37.2398 80.2552,40.9065 81,44.5C 79.6244,43.2949 78.4577,41.9616 77.5,40.5C 76.5,39.8333 75.5,39.1667 74.5,38.5C 78.295,34.5807 80.1283,29.914 80,24.5C 76.5176,21.9787 73.0176,22.1453 69.5,25C 67.5265,28.7579 68.5265,30.9245 72.5,31.5C 72.3482,35.4866 70.3482,36.9866 66.5,36C 62.3557,31.333 61.6891,26.333 64.5,21C 67.1922,20.5702 69.8589,20.7369 72.5,21.5C 72.719,20.325 72.3857,19.325 71.5,18.5C 66.411,15.9645 61.0777,14.7978 55.5,15C 55,15.5 54.5,16 54,16.5C 52.4638,22.7494 52.1304,29.0828 53,35.5C 54.1181,39.4558 56.6181,41.7892 60.5,42.5C 60.5,42.8333 60.5,43.1667 60.5,43.5C 60.1667,44.1667 59.8333,44.8333 59.5,45.5C 58.8333,45.5 58.1667,45.5 57.5,45.5C 54.118,42.0395 50.118,41.0395 45.5,42.5C 45.1667,43 44.8333,43.5 44.5,44C 46.2792,47.9559 46.9459,52.1226 46.5,56.5C 46.1667,56.5 45.8333,56.5 45.5,56.5C 46.276,47.7751 42.276,43.2751 33.5,43C 36.5941,37.7993 37.2608,32.2993 35.5,26.5C 36.1667,25.5 36.8333,24.5 37.5,23.5C 36.868,29.7655 38.5346,35.2655 42.5,40C 47.0976,41.0906 49.9309,39.2573 51,34.5C 51.6667,30.5 51.6667,26.5 51,22.5C 47.7309,20.2383 44.2309,19.905 40.5,21.5C 40.5,20.8333 40.5,20.1667 40.5,19.5C 43.2706,19.5793 45.9373,19.0793 48.5,18C 50.1554,16.5557 50.822,14.7224 50.5,12.5C 50.5,11.8333 50.8333,11.5 51.5,11.5 Z"/></g>
<g><path style="opacity:1" fill="#f29228" d="M 74.5,38.5 C 70.4067,41.6399 65.74,42.9733 60.5,42.5C 56.6181,41.7892 54.1181,39.4558 53,35.5C 52.1304,29.0828 52.4638,22.7494 54,16.5C 54.5,16 55,15.5 55.5,15C 61.0777,14.7978 66.411,15.9645 71.5,18.5C 72.3857,19.325 72.719,20.325 72.5,21.5C 69.8589,20.7369 67.1922,20.5702 64.5,21C 61.6891,26.333 62.3557,31.333 66.5,36C 70.3482,36.9866 72.3482,35.4866 72.5,31.5C 68.5265,30.9245 67.5265,28.7579 69.5,25C 73.0176,22.1453 76.5176,21.9787 80,24.5C 80.1283,29.914 78.295,34.5807 74.5,38.5 Z"/></g>
<g><path style="opacity:1" fill="#f18f22" d="M 35.5,26.5 C 37.2608,32.2993 36.5941,37.7993 33.5,43C 42.276,43.2751 46.276,47.7751 45.5,56.5C 44.969,59.237 44.1356,61.9036 43,64.5C 39.173,69.8408 34.0063,73.3408 27.5,75C 14.3408,77.9979 8.00752,72.8312 8.5,59.5C 3.61992,58.6076 1.28658,55.6076 1.5,50.5C 3.11834,42.2635 6.61834,34.9302 12,28.5C 16.0866,24.3755 20.9199,21.7089 26.5,20.5C 31.0801,20.2808 34.0801,22.2808 35.5,26.5 Z"/></g>
<g><path style="opacity:1" fill="#f19023" d="M 37.5,23.5 C 37.9731,22.0937 38.9731,21.427 40.5,21.5C 44.2309,19.905 47.7309,20.2383 51,22.5C 51.6667,26.5 51.6667,30.5 51,34.5C 49.9309,39.2573 47.0976,41.0906 42.5,40C 38.5346,35.2655 36.868,29.7655 37.5,23.5 Z"/></g>
<g><path style="opacity:1" fill="#f29227" d="M 84.5,48.5 C 82.5471,49.9988 80.8804,49.6655 79.5,47.5C 78.5788,49.0314 78.9122,50.3647 80.5,51.5C 79.9653,53.4456 78.632,54.4456 76.5,54.5C 73.8985,50.2331 72.8985,45.7331 73.5,41C 74.7932,40.51 76.1266,40.3433 77.5,40.5C 78.4577,41.9616 79.6244,43.2949 81,44.5C 80.2552,40.9065 79.9218,37.2398 80,33.5C 80.9525,31.4078 82.2859,31.0745 84,32.5C 85.8272,37.7679 85.9939,43.1012 84.5,48.5 Z"/></g>
<g><path style="opacity:1" fill="#fef8f1" d="M 21.5,31.5 C 26.2129,31.4676 27.7129,33.8009 26,38.5C 23.7849,43.523 19.9516,45.8563 14.5,45.5C 13.6667,39.1664 16,34.4997 21.5,31.5 Z"/></g>
<g><path style="opacity:1" fill="#fcd9b6" d="M 74.5,38.5 C 75.5,39.1667 76.5,39.8333 77.5,40.5C 76.1266,40.3433 74.7932,40.51 73.5,41C 72.8985,45.7331 73.8985,50.2331 76.5,54.5C 75.8333,54.8333 75.1667,55.1667 74.5,55.5C 74.2437,53.0628 73.5771,50.7294 72.5,48.5C 71.3112,47.5713 69.9778,47.238 68.5,47.5C 67.6993,49.0418 67.366,50.7085 67.5,52.5C 65.5488,49.2139 63.2154,46.2139 60.5,43.5C 60.5,43.1667 60.5,42.8333 60.5,42.5C 65.74,42.9733 70.4067,41.6399 74.5,38.5 Z"/></g>
<g><path style="opacity:1" fill="#f2932b" d="M 57.5,45.5 C 57.5,47.1667 57.5,48.8333 57.5,50.5C 56.7101,51.7942 55.7101,52.9609 54.5,54C 56.8021,56.4667 58.4688,59.3 59.5,62.5C 58.3968,65.9821 56.7301,66.3154 54.5,63.5C 54.152,61.2872 53.3187,59.2872 52,57.5C 52.1519,60.447 52.3185,63.447 52.5,66.5C 50.8333,66.5 49.1667,66.5 47.5,66.5C 46.5863,63.272 46.2529,59.9387 46.5,56.5C 46.9459,52.1226 46.2792,47.9559 44.5,44C 44.8333,43.5 45.1667,43 45.5,42.5C 50.118,41.0395 54.118,42.0395 57.5,45.5 Z"/></g>
<g><path style="opacity:0.788" fill="#1a9760" d="M 87.5,33.5 C 95.6357,50.728 90.3024,61.228 71.5,65C 65.7998,72.2554 58.4665,74.9221 49.5,73C 43.8486,82.4883 35.5152,86.9883 24.5,86.5C 29.3111,84.8315 33.9777,82.6648 38.5,80C 41.8233,77.5175 44.1566,74.3508 45.5,70.5C 49.2728,69.8969 52.9394,69.2302 56.5,68.5C 62.2699,67.2833 66.6033,64.1166 69.5,59C 84.4305,57.009 90.4305,48.509 87.5,33.5 Z"/></g>
<g><path style="opacity:1" fill="#f29632" d="M 68.5,47.5 C 65.306,47.8244 64.306,46.6578 65.5,44C 67.1341,43.5065 68.8008,43.3398 70.5,43.5C 70.4729,45.1993 69.8062,46.5326 68.5,47.5 Z"/></g>
<g><path style="opacity:1" fill="#fee8d2" d="M 48.5,46.5 C 49.8734,46.3433 51.2068,46.51 52.5,47C 53.8333,49.3333 53.1667,50.3333 50.5,50C 49.1772,49.1841 48.5106,48.0174 48.5,46.5 Z"/></g>
<g><path style="opacity:1" fill="#fad5af" d="M 57.5,45.5 C 58.1667,45.5 58.8333,45.5 59.5,45.5C 59.5,48.8333 59.5,52.1667 59.5,55.5C 58.8333,53.8333 58.1667,52.1667 57.5,50.5C 57.5,48.8333 57.5,47.1667 57.5,45.5 Z"/></g>
<g><path style="opacity:1" fill="#f2932b" d="M 60.5,43.5 C 63.2154,46.2139 65.5488,49.2139 67.5,52.5C 68.0138,54.5116 68.1805,56.5116 68,58.5C 67.586,58.9574 67.086,59.2907 66.5,59.5C 64.3251,54.6367 63.3251,55.3034 63.5,61.5C 60.2206,60.9694 58.8872,58.9694 59.5,55.5C 59.5,52.1667 59.5,48.8333 59.5,45.5C 59.8333,44.8333 60.1667,44.1667 60.5,43.5 Z"/></g>
<g><path style="opacity:1" fill="#f2942c" d="M 68.5,47.5 C 69.9778,47.238 71.3112,47.5713 72.5,48.5C 73.5771,50.7294 74.2437,53.0628 74.5,55.5C 73.3991,56.5983 72.0657,56.765 70.5,56C 69.8366,54.4815 68.8366,53.3149 67.5,52.5C 67.366,50.7085 67.6993,49.0418 68.5,47.5 Z"/></g>
<g><path style="opacity:1" fill="#fcd8b4" d="M 84.5,48.5 C 83.5525,49.9779 82.2191,50.9779 80.5,51.5C 78.9122,50.3647 78.5788,49.0314 79.5,47.5C 80.8804,49.6655 82.5471,49.9988 84.5,48.5 Z"/></g>
<g><path style="opacity:1" fill="#fcdab8" d="M 61.5,49.5 C 63.8324,50.1617 64.4991,51.495 63.5,53.5C 61.8888,52.6798 61.2222,51.3464 61.5,49.5 Z"/></g>
<g><path style="opacity:1" fill="#fef7f0" d="M 30.5,50.5 C 36.9339,50.0928 38.7673,52.7594 36,58.5C 32.8088,62.6708 28.6422,64.5041 23.5,64C 21.0155,61.7162 20.8489,59.2162 23,56.5C 25.1141,53.8792 27.6141,51.8792 30.5,50.5 Z"/></g>
<g><path style="opacity:1" fill="#f9ca99" d="M 54.5,63.5 C 53.8333,64.5 53.1667,65.5 52.5,66.5C 52.3185,63.447 52.1519,60.447 52,57.5C 53.3187,59.2872 54.152,61.2872 54.5,63.5 Z"/></g>
<g><path style="opacity:1" fill="#a3d2ba" d="M 47.5,68.5 C 50.5,68.5 53.5,68.5 56.5,68.5C 52.9394,69.2302 49.2728,69.8969 45.5,70.5C 45.5,69.1667 46.1667,68.5 47.5,68.5 Z"/></g>
<g><path style="opacity:0.415" fill="#08935b" d="M 53.5,74.5 C 54.5832,74.5394 55.5832,74.8728 56.5,75.5C 58.1377,78.9002 58.3044,82.2336 57,85.5C 54.1297,87.0746 51.963,86.4079 50.5,83.5C 50.9037,81.2997 51.0704,78.9664 51,76.5C 51.9947,75.9341 52.828,75.2674 53.5,74.5 Z"/></g>
<g><path style="opacity:0.526" fill="#08935b" d="M 58.5,74.5 C 60.7925,74.2436 62.9592,74.5769 65,75.5C 64.053,79.0007 63.553,82.6674 63.5,86.5C 62.1667,86.5 60.8333,86.5 59.5,86.5C 59.4955,82.4659 59.1621,78.4659 58.5,74.5 Z"/></g>
<g><path style="opacity:0.51" fill="#04945a" d="M 66.5,74.5 C 67.5,74.5 68.5,74.5 69.5,74.5C 69.8333,85.1667 70.1667,85.1667 70.5,74.5C 71.5,74.5 72.5,74.5 73.5,74.5C 73.665,77.8499 73.4983,81.1832 73,84.5C 71.4773,86.6201 69.6439,86.9535 67.5,85.5C 66.5108,81.8927 66.1774,78.226 66.5,74.5 Z"/></g>
<g><path style="opacity:0.587" fill="#08935a" d="M 75.5,74.5 C 82.3309,74.8385 84.4976,78.1718 82,84.5C 79.8325,86.4644 77.4992,86.7978 75,85.5C 74.2446,81.7446 74.4113,78.0779 75.5,74.5 Z"/></g>
<g><path style="opacity:0.401" fill="#05945b" d="M 84.5,74.5 C 85.4959,74.4142 86.3292,74.7476 87,75.5C 87.4986,79.1516 87.6653,82.8183 87.5,86.5C 86.5,86.5 85.5,86.5 84.5,86.5C 84.5,82.5 84.5,78.5 84.5,74.5 Z"/></g>
<g><path style="opacity:0.358" fill="#04945b" d="M 95.5,75.5 C 95.5,78.8333 95.5,82.1667 95.5,85.5C 90.7382,87.417 88.4049,85.7503 88.5,80.5C 88.5884,75.6258 90.9218,73.9591 95.5,75.5 Z"/></g>
<g><path style="opacity:0.586" fill="#2f9d67" d="M 25.5,80.5 C 21.5842,80.9745 18.2509,79.9745 15.5,77.5C 19.3745,77.6436 23.2079,77.3102 27,76.5C 29.9089,78.2366 29.4089,79.5699 25.5,80.5 Z"/></g>
</svg>
